<svg width="40px" height="40px" viewBox="0 0 267 267" fill="none" xmlns="http://www.w3.org/2000/svg">
<path d="M133.333 263.67C206.055 263.67 265.007 205.316 265.007 133.333C265.007 61.3503 206.055 2.99658 133.333 2.99658C60.612 2.99658 1.65979 61.3503 1.65979 133.333C1.65979 205.316 60.612 263.67 133.333 263.67Z" fill="#F32C2C"/>
<path d="M133.5 207L72.6207 132.084C69.8511 128.678 68.4622 126.975 68.0963 124.928C67.7303 122.882 68.429 120.81 69.8262 116.676L76.0139 98.3928C79.6733 87.5853 81.503 82.1816 85.8611 79.0949C90.2191 76 96.0076 76 107.576 76H159.424C170.992 76 176.781 76 181.131 79.0949C185.497 82.1816 187.327 87.5853 190.986 98.3928L197.174 116.676C198.571 120.81 199.27 122.873 198.904 124.928C198.529 126.975 197.149 128.678 194.379 132.084L133.5 207ZM133.5 207L162.609 116.937M133.5 207L104.391 116.937M162.609 116.937L195.876 125.125M162.609 116.937L150.134 84.1875M162.609 116.937H104.391M104.391 116.937L116.866 84.1875M104.391 116.937L71.1236 125.125" stroke="white" stroke-width="15" stroke-linecap="round" stroke-linejoin="round"/>
</svg>
